<?xml version="1.0" standalone="no"?>
<!DOCTYPE svg PUBLIC "-//W3C//DTD SVG 20010904//EN"
 "http://www.w3.org/TR/2001/REC-SVG-20010904/DTD/svg10.dtd">
<svg version="1.0" xmlns="http://www.w3.org/2000/svg"
 width="580.000000pt" height="580.000000pt" viewBox="0 0 580.000000 580.000000"
 preserveAspectRatio="xMidYMid meet">
<metadata>
Created by potrace 1.11, written by Peter Selinger 2001-2013
</metadata>
<g transform="translate(0.000000,580.000000) scale(0.100000,-0.100000)"
fill="#000000" stroke="none">
<path d="M0 2900 l0 -2900 2900 0 2900 0 0 2900 0 2900 -2900 0 -2900 0 0
-2900z m1982 1590 c281 -23 527 -110 763 -268 140 -94 137 -73 39 -242 -46
-80 -88 -144 -94 -143 -5 2 -38 26 -72 53 -113 91 -270 173 -409 213 -161 47
-390 60 -550 32 -211 -36 -431 -140 -595 -280 l-42 -36 -86 151 -87 151 23 20
c55 46 230 158 308 196 203 98 392 144 665 161 11 1 73 -3 137 -8z m69 -706
c169 -38 318 -124 441 -252 130 -137 218 -311 247 -492 11 -66 16 -1030 6
-1030 -3 0 -75 40 -159 90 -85 49 -157 90 -161 90 -4 0 -39 -21 -77 -46 -347
-231 -806 -192 -1110 94 -123 116 -215 271 -259 437 -31 114 -31 336 0 450 44
166 136 321 259 437 130 122 312 212 487 238 81 12 235 5 326 -16z m2751 -6
c-11 -18 -54 -93 -96 -166 l-76 -134 50 -76 c132 -201 180 -451 131 -687 -70
-342 -332 -614 -669 -697 -111 -28 -303 -30 -406 -5 -337 83 -596 340 -677
672 -31 125 -31 305 0 430 75 310 314 563 616 654 116 35 171 39 668 40 l479
1 -20 -32z m63 -1949 l86 -150 -23 -20 c-56 -47 -236 -162 -311 -198 -443
-210 -946 -207 -1377 9 -100 50 -263 155 -292 186 -15 18 -11 27 68 164 46 80
88 144 94 143 5 -2 38 -26 72 -53 164 -132 365 -218 589 -251 127 -18 342 -7
461 25 180 48 351 135 483 245 33 28 61 51 62 51 1 0 40 -68 88 -151z"/>
<path d="M1760 3463 c-59 -10 -153 -47 -207 -82 -299 -194 -352 -609 -112
-866 109 -116 229 -173 384 -182 173 -10 312 43 435 167 113 113 170 246 170
400 0 261 -186 495 -441 555 -59 14 -171 18 -229 8z"/>
<path d="M3806 3455 c-206 -52 -372 -221 -421 -426 -45 -194 10 -385 155 -529
123 -124 262 -177 435 -167 302 18 535 264 535 567 0 190 -103 379 -261 481
-121 77 -306 108 -443 74z"/>
</g>
</svg>
